<svg xmlns="http://www.w3.org/2000/svg" width="32" height="32" viewBox="0 0 32 32" fill="none">
  <!-- Background circle -->
  <circle cx="16" cy="16" r="16" fill="#000000"/>
  
  <!-- Microphone body with gradient -->
  <defs>
    <linearGradient id="grad" x1="0%" y1="0%" x2="100%" y2="100%">
      <stop offset="0%" style="stop-color:#f97316"/>
      <stop offset="100%" style="stop-color:#ea580c"/>
    </linearGradient>
  </defs>
  
  <!-- Microphone capsule -->
  <rect x="13" y="7" width="6" height="10" rx="3" fill="url(#grad)"/>
  
  <!-- Microphone stand -->
  <path d="M16 17 C18.8 17 21 19.2 21 22 L21 23 L11 23 L11 22 C11 19.2 13.2 17 16 17 Z" fill="#6b7280"/>
  
  <!-- Microphone base -->
  <rect x="15" y="23" width="2" height="2" fill="#6b7280"/>
  
  <!-- Sound waves -->
  <path d="M9 14 C9 17.3 11.7 20 15 20" stroke="#f97316" stroke-width="1" fill="none" opacity="0.6"/>
  <path d="M23 14 C23 17.3 20.3 20 17 20" stroke="#f97316" stroke-width="1" fill="none" opacity="0.6"/>
  
  <!-- Microphone grille -->
  <line x1="14" y1="9" x2="18" y2="9" stroke="#ffffff" stroke-width="0.5" opacity="0.7"/>
  <line x1="14" y1="11" x2="18" y2="11" stroke="#ffffff" stroke-width="0.5" opacity="0.7"/>
  <line x1="14" y1="13" x2="18" y2="13" stroke="#ffffff" stroke-width="0.5" opacity="0.7"/>
  <line x1="14" y1="15" x2="18" y2="15" stroke="#ffffff" stroke-width="0.5" opacity="0.7"/>
</svg>